<?xml version="1.0" encoding="iso-8859-1"?>
<!-- Generator: Adobe Illustrator 19.0.0, SVG Export Plug-In . SVG Version: 6.00 Build 0)  -->
<svg version="1.1" id="Layer_1" xmlns="http://www.w3.org/2000/svg" xmlns:xlink="http://www.w3.org/1999/xlink" x="0px" y="0px"
	 viewBox="0 0 512 512" style="enable-background:new 0 0 512 512;" xml:space="preserve">
<path style="fill:#F48FB1;" d="M444.4,300L444.4,300L444.4,300L444.4,300z M220,431.6c4.4,0,7.6-3.6,7.6-7.6l-7.6-7.6
	c-4.4,0-7.6,3.6-7.6,7.6C212.4,428.4,215.6,431.6,220,431.6z M64,260L64,260L64,260L64,260z M396,347.6c4.4,0,7.6-3.6,7.6-7.6
	l-7.6-7.6c-4.4,0-7.6,3.6-7.6,7.6C388.4,344.4,391.6,347.6,396,347.6z M412.4,176c0,4,3.6,7.6,7.6,7.6c4.4,0,7.6-3.6,7.6-7.6
	l-7.6-7.6C416,168.4,412.4,172,412.4,176z M148,347.6c4.4,0,7.6-3.6,7.6-7.6l-7.6-7.6c-4.4,0-7.6,3.6-7.6,7.6
	C140.4,344.4,143.6,347.6,148,347.6z M104.4,372L104.4,372L104.4,372L104.4,372z M228,124c0,4,3.6,7.6,7.6,7.6s7.6-3.2,7.6-7.6
	l-7.6-7.6C231.6,116.4,228,120,228,124z M80.4,160c0,4.4,3.6,7.6,7.6,7.6c4.4,0,7.6-3.6,7.6-7.6l-7.6-7.6
	C83.6,152.4,80.4,156,80.4,160z M24,253.6c0.4-58.4,22.8-112,59.2-152.4c39.6-39.2,95.2-66.4,156.4-76.8c5.2-0.4,10.8-0.4,16-0.4
	c25.6,0,50.4,4,73.2,12c54,21.2,104.8,65.2,133.6,118.4c12.8,25.6,21.2,54,21.2,84v0.4c0,15.2,2,31.2,0.4,46.8l0.8,0.4
	c-2,16-5.2,31.2-10.4,46c0,0,0,0.4,0,0.8c-11.6,27.6-32,60.4-51.6,84l0,0c-42.4,44-101.6,71.2-167.2,71.2
	c-42,0-81.6-11.2-115.6-30.8l0,0c-18-13.6-39.6-27.6-56.4-46c-2.4-2.4-4.4-5.2-6.8-7.6c-16-19.6-27.2-43.6-37.2-63.2c0,0,0,0,0-0.4
	c-8.8-22.4-14-46.4-15.2-71.6c0-0.4,0-0.4,0-0.8C24.4,262.8,24,258.4,24,253.6z M404.4,392.4L404.4,392.4L404.4,392.4L404.4,392.4z
	 M360.4,100.8L360.4,100.8L360.4,100.8L360.4,100.8z M295.6,167.6c-0.4,0-0.8,0-1.2,0c-2.4-2.8-5.6-5.2-10.4-6.4
	c-5.6-1.6-10.8-2-16.8-2.4c-3.2,0-5.6,0.4-8.4,1.6c-8.4-0.4-16.4-0.8-25.2,0.4c-8.4,1.2-18,4-26.4,8c-3.6,1.6-6.8,3.6-9.6,6
	c-25.2,18-42,47.6-42,81.2c0,9.2,1.2,18,3.6,26.4l0,0c0.8,3.6,1.6,7.2,3.2,10.4c0.8,2,1.6,3.6,2.8,5.2c5.6,12.4,14,23.2,24,32
	c2.4,2.8,4.8,5.2,7.2,6.4c1.2,0.4,2.4,1.2,3.2,1.6c13.2,8.8,28.4,14.8,44.8,16.4l0,0c16.8,3.6,31.2,1.2,47.2-6.4h0.4
	c8.4-3.2,16-7.6,22.8-12.8l0,0c8.8-6,16-13.2,21.6-22.4c2-3.2,3.6-6.8,5.2-10.4c0.8-2.4,1.2-4.4,1.6-6.4
	c23.2-38,5.6-90.4-26.8-116.4c-1.2-0.8-2.4-1.6-3.6-2.4c-2-3.6-5.2-5.6-8-6.8C302.8,169.6,299.6,168.4,295.6,167.6z M132,184.4
	L132,184.4L132,184.4L132,184.4z M300,444L300,444L300,444L300,444z"/>
<g>
	<path style="fill:#FFCC80;" d="M427.6,176c0,4-3.6,7.6-7.6,7.6s-7.6-3.6-7.6-7.6s3.6-7.6,7.6-7.6L427.6,176z"/>
	<path style="fill:#FFCC80;" d="M388.4,340c0-4.4,3.2-7.6,7.6-7.6l7.6,7.6c0,4.4-3.6,7.6-7.6,7.6C391.6,347.6,388.4,344.4,388.4,340
		z"/>
	<path style="fill:#FFCC80;" d="M295.6,167.6c3.6,0.4,7.2,2,9.6,3.6c3.2,1.2,6,3.2,8,6.8c1.2,0.8,2.4,1.6,3.6,2.4
		c32.4,25.6,50,78.4,26.8,116.4c0,2-0.4,4-1.6,6.4c-1.6,3.6-3.2,7.2-5.2,10.4c-6,8.4-13.2,16-21.6,22.4l0,0c-4.8,3.2-9.6,6-15.2,9.2
		c-2.4,1.2-5.2,2.8-7.6,3.6c0,0,0,0-0.4,0c-11.2,4.4-23.6,6.8-36.4,6.8c-3.6,0-7.2,0-10.8-0.4l0,0c-5.2-1.2-10-2.8-15.6-4.8
		c-9.6-3.6-19.6-7.2-29.2-11.6c-3.6-2.4-7.2-5.2-10.8-8.4c-3.2-4-6.4-8.4-9.2-11.6c-5.6-6.4-10.8-13.2-14.8-20.4
		c-2.4-5.2-4.4-10.4-6-15.6l0,0c-1.6-8-1.2-16-2.4-24.4c-0.4-2.8,0-5.6,0.4-8c0-0.8,0-1.6,0-2.4c3.2-32,14.4-51.2,38.4-72
		c0.4-0.4,0.8-0.8,1.6-1.2c3.2-2.4,6.4-4.4,9.6-6c8.4-4,17.6-6.8,26.4-8c8.4-1.2,16.8-0.8,25.2-0.4c2.4-1.2,5.2-1.6,8.4-1.6
		c6,0.4,10.8,0.8,16.8,2.4c4.8,1.2,8,3.6,10.4,6.4C294.8,167.6,295.2,167.6,295.6,167.6z M335.6,256c0-44-35.6-80-79.6-80
		s-79.6,35.6-79.6,80c0,44,35.6,79.6,79.6,79.6S335.6,300,335.6,256z"/>
	<path style="fill:#FFCC80;" d="M228,124c0-4.4,3.6-7.6,7.6-7.6l7.6,7.6c0,4-3.6,7.6-7.6,7.6S228,128.4,228,124z"/>
	<path style="fill:#FFCC80;" d="M220,416.4l7.6,7.6c0,4-3.2,7.6-7.6,7.6s-7.6-3.6-7.6-7.6S215.6,416.4,220,416.4z"/>
	<path style="fill:#FFCC80;" d="M329.2,36c-28.4-13.6-59.2-16-86-12c-1.2,0-2.4,0.4-3.6,0.4c-62,4.4-117.2,33.2-156.4,76.8
		C46.4,137.2,24,184,24,236.8c0,5.6,0,11.2,0,16.8c0,0.8,0,1.6,0,2.4c0,4,0,8,0.4,11.6c0,0.4,0,0.4,0,0.8c0.8,24,4,49.6,15.2,71.6
		c9.2,23.2,21.6,44.4,37.2,63.6c2,2.4,4.4,5.2,6.8,7.6c16.4,18,35.2,33.6,56.4,46l0,0c38,28.4,84,33.2,127.6,33.2
		c58.4,0,116-26.8,155.6-73.6l0,0c22.8-24,40.8-52.8,52-84.4c6.4-15.2,9.2-30.8,10.8-46V286c1.2-9.6,2-19.6,2-29.6
		c0-6-0.4-12-0.8-18c0-29.2-7.6-58-22.8-84C433.6,101.6,380,60,329.2,36z M256,4c139.2,0,252,112.8,252,252S395.2,508,256,508
		S4,395.2,4,256S116.8,4,256,4z"/>
	<path style="fill:#FFCC80;" d="M155.6,340c0,4.4-3.6,7.6-7.6,7.6s-7.6-3.6-7.6-7.6c0-4.4,3.6-7.6,7.6-7.6L155.6,340z"/>
	<path style="fill:#FFCC80;" d="M88,152.4l7.6,7.6c0,4.4-3.2,7.6-7.6,7.6c-4.4,0-7.6-3.6-7.6-7.6S83.6,152.4,88,152.4z"/>
</g>
<path d="M256,512C114.8,512,0,397.2,0,256S114.8,0,256,0s256,114.8,256,256S397.2,512,256,512z M256,8C119.2,8,8,119.2,8,256
	s111.2,248,248,248s248-111.2,248-248S392.8,8,256,8z"/>
<path d="M256,339.6c-46,0-83.6-37.6-83.6-83.6c0-46.4,37.6-83.6,83.6-83.6c46.4,0,84,37.6,84,83.6C340,302.4,302.4,339.6,256,339.6z
	 M256,180.4c-41.6,0-75.6,34-75.6,75.6s34,75.6,75.6,75.6s76-34,76-75.6S297.6,180.4,256,180.4z"/>
<path d="M256,492c-41.2,0-82-10.8-117.6-31.6c0,0,0,0-0.4,0c-21.6-12.4-40.8-28-57.2-46.4c-2.4-2.4-4.4-4.8-6.8-8
	c-16-19.2-28.8-41.2-38-64.4c-9.2-23.2-14.4-47.6-15.6-72.8c0-0.4,0-0.8,0-1.2C20,264.4,20,260.4,20,256c0-0.8,0-1.6,0-2.8
	c0.4-57.2,22-112,60.4-154.8c41.2-46,98-73.6,159.2-78C245.2,20,250.8,20,256,20c2.4,0,4,1.6,4,4s-1.6,4-4,4c-5.2,0-10.4,0-16,0.4
	c-59.2,4-114,30.8-154,75.2C48.8,144.8,28.4,198,27.6,253.2c0,0.8,0,1.6,0,2.4c0,4.4,0,8,0.4,11.6v0.4c1.2,24.4,6.4,48,15.2,70.8
	S64.4,382,80,400.8c2.4,2.8,4.4,5.2,6.4,7.6c16,18,34.8,33.2,55.6,45.2c0,0,0,0,0.4,0C176.8,473.2,216,484,255.6,484
	c62.4,0,120.8-24.8,164-70c0,0,0-0.4,0.4-0.4c22.8-23.6,40.4-52.4,50.8-83.2c5.2-14.8,8.8-30,10.8-45.2v-0.4l0,0
	c1.2-9.6,2-19.2,2-29.2c0-5.6-0.4-11.6-0.8-17.6c-2-28.8-9.6-56.4-22.4-82.4c-7.2-14.4-15.6-28-25.2-40.4c-1.2-1.6-1.2-4.4,0.8-5.6
	c1.6-1.2,4.4-1.2,5.6,0.8c10,12.8,18.8,26.8,26.4,41.6c13.2,26.8,21.2,55.6,23.2,85.6c0.4,6.4,0.8,12.4,0.8,18c0,10-0.8,20-2,30
	c0,0.4,0,0.4,0,0.8c-2,15.6-5.6,31.2-10.8,46.4c-10.8,31.6-29.2,61.2-52.4,86l-0.4,0.4C381.2,466,320.8,492,256,492z"/>
<path d="M388,69.6c-0.8,0-1.6-0.4-2.4-0.8C368,56.4,348.4,46.8,328,40c-23.2-7.6-47.2-11.6-72-11.6c-2.4,0-4-1.6-4-4s1.6-4,4-4
	c25.6,0,50.8,4,74.4,12c21.2,7.2,41.6,17.2,60,30c2,1.2,2.4,3.6,0.8,5.6C390.4,68.8,389.2,69.6,388,69.6z"/>
<path d="M256,359.6c-4,0-7.6-0.4-11.2-0.8l0,0h-0.4c-16.4-2-32.4-7.6-46-17.2c-4-2.8-7.6-5.6-11.2-8.8
	c-10.4-9.6-18.8-20.4-24.8-33.2c-2.4-5.2-4.4-10.8-6-16.4c0,0,0,0,0-0.4c-2.4-8.8-3.6-18-3.6-27.6c0-33.6,16.4-65.2,43.6-84.4
	c2.8-2,6.4-4.4,10-6.4c15.2-8.4,32.4-13.2,50.4-13.2c22.4,0,44,7.2,62,20.4c1.6,1.2,2,4,0.8,5.6s-4,2-5.6,0.8
	c-16.8-12.4-36.4-18.8-57.2-18.8c-16.4,0-32.4,4-46.4,12c-3.2,2-6.4,3.6-9.2,5.6c-25.2,18-40.4,47.2-40.4,78
	c0,8.8,1.2,17.2,3.6,25.6c0,0,0,0,0,0.4l0,0c1.6,5.2,3.2,10.4,5.6,15.2c5.6,11.6,13.2,22,22.8,30.8c3.2,2.8,6.4,5.6,10.4,8
	c12.8,8.8,27.6,14,42.8,15.6h0.4c3.2,0.4,6.8,0.4,10,0.4c2.4,0,4,1.6,4,4S258.4,359.6,256,359.6z"/>
<path d="M256,359.6c-2.4,0-4-1.6-4-4s1.6-4,4-4c12,0,23.6-2.4,34.8-6.4c0,0,0.4,0,0.4-0.4c7.6-3.2,15.2-7.2,21.6-12l0.4-0.4
	c8-6,15.2-13.2,20.8-21.2c11.6-16.4,17.6-35.2,17.6-55.2c0-17.2-4.8-34.4-13.6-48.8c-1.2-2-0.4-4.4,1.2-5.6c2-1.2,4.4-0.4,5.6,1.2
	c9.6,16,14.8,34.4,14.8,53.2c0,21.6-6.8,42.4-19.2,60c-6,8.8-13.6,16.4-22.4,23.2c0,0,0,0-0.4,0.4c-7.2,5.6-15.2,10-23.6,13.2
	c-0.4,0-0.4,0.4-0.8,0.4C282,357.2,269.2,359.6,256,359.6z"/>
<path d="M220,435.6c-6.4,0-11.6-5.2-11.6-11.6s5.2-11.6,11.6-11.6c2.4,0,4,1.6,4,4s-1.6,4-4,4c-2,0-3.6,1.6-3.6,3.6s1.6,3.6,3.6,3.6
	s3.6-1.6,3.6-3.6c0-2.4,1.6-4,4-4s4,1.6,4,4C231.6,430.4,226.4,435.6,220,435.6z"/>
<path d="M148,351.6c-6.4,0-11.6-5.2-11.6-11.6s5.2-11.6,11.6-11.6c2.4,0,4,1.6,4,4s-1.6,4-4,4c-2,0-3.6,1.6-3.6,3.6s1.6,3.6,3.6,3.6
	s3.6-1.6,3.6-3.6c0-2.4,1.6-4,4-4s4,1.6,4,4C159.6,346.4,154.4,351.6,148,351.6z"/>
<path d="M396,351.6c-6.4,0-11.6-5.2-11.6-11.6s5.2-11.6,11.6-11.6c2.4,0,4,1.6,4,4s-1.6,4-4,4c-2,0-3.6,1.6-3.6,3.6s1.6,3.6,3.6,3.6
	s3.6-1.6,3.6-3.6c0-2.4,1.6-4,4-4s4,1.6,4,4C407.6,346.4,402.4,351.6,396,351.6z"/>
<path d="M420,187.6c-6.4,0-11.6-5.2-11.6-11.6s5.2-11.6,11.6-11.6c2.4,0,4,1.6,4,4s-1.6,4-4,4c-2,0-3.6,1.6-3.6,3.6s1.6,3.6,3.6,3.6
	s3.6-1.6,3.6-3.6c0-2.4,1.6-4,4-4s4,1.6,4,4C431.6,182.4,426.4,187.6,420,187.6z"/>
<path d="M235.6,135.6c-6.4,0-11.6-5.2-11.6-11.6s5.2-11.6,11.6-11.6c2.4,0,4,1.6,4,4s-1.6,4-4,4c-2,0-3.6,1.6-3.6,3.6
	s1.6,3.6,3.6,3.6s3.6-1.6,3.6-3.6c0-2.4,1.6-4,4-4s4,1.6,4,4C247.6,130.4,242,135.6,235.6,135.6z"/>
<path d="M88,171.6c-6.4,0-11.6-5.2-11.6-11.6s5.2-11.6,11.6-11.6c2.4,0,4,1.6,4,4s-1.6,4-4,4c-2,0-3.6,1.6-3.6,3.6s1.6,3.6,3.6,3.6
	s3.6-1.6,3.6-3.6c0-2.4,1.6-4,4-4s4,1.6,4,4C99.6,166.4,94.4,171.6,88,171.6z"/>
<path d="M300.4,88c-2.4,0-4-1.6-4-4c0-1.6,1.2-3.2,2.4-3.6c0.4,0,0.8-0.4,1.6-0.4c2.4,0,4,1.6,4,4l0,0C304.4,86.4,302.4,88,300.4,88
	z"/>
<path d="M164,96.4c-2.4,0-4-1.6-4-4c0-1.6,0.8-3.2,2.4-3.6c0.4-0.4,1.2-0.4,1.6-0.4c2.4,0,4,1.6,4,4l0,0C168,94.4,166,96.4,164,96.4
	z"/>
<path d="M132,188.4c-2.4,0-4-2-4-4s1.6-4,4-4l0,0c2.4,0,4,1.6,4,4S134.4,188.4,132,188.4z"/>
<path d="M64,264L64,264c-2.4-0.4-4-2-4-4c0-2.4,1.6-4,4-4l0,0c2.4,0,4,1.6,4,4c0,1.2-0.4,2.4-1.2,2.8C66,263.6,65.2,264,64,264z"/>
<path d="M104,220L104,220c-2.4,0-4-1.6-4-4s1.6-4,4-4c1.6,0,3.2,0.8,3.6,2.4c0.4,0.4,0.4,1.2,0.4,1.6C108,218.4,106.4,220,104,220z"
	/>
<path d="M112,296c-1.2,0-2-0.4-2.8-1.2c-0.8-0.8-1.2-2-1.2-2.8s0.4-2,1.2-2.8c1.6-1.6,4-1.6,5.6,0c0.8,0.8,1.2,2,1.2,2.8
	s-0.4,2-1.2,2.8C114,295.6,113.2,296,112,296z"/>
<path d="M104.4,376c-0.4,0-1.2,0-1.6-0.4c-1.6-0.8-2.4-2-2.4-3.6c0-2.4,1.6-4,4-4l0,0c1.6,0,3.2,0.8,3.6,2.4
	c0.8,1.6,0.4,3.2-0.8,4.4C106.4,375.6,105.2,376,104.4,376z"/>
<path d="M164,412L164,412c-2.4,0-4-1.6-4-4s1.6-4,4-4c1.6,0,2.8,0.8,3.6,2c0.4,0.4,0.4,1.2,0.4,2C168,410.4,166,412,164,412z"/>
<path d="M332.4,388c-2.4,0-4-1.6-4-4c0-1.6,0.8-3.2,2.4-3.6c0.4-0.4,1.2-0.4,1.6-0.4c2.4,0,4,1.6,4,4l0,0
	C336.4,386.4,334.4,388,332.4,388z"/>
<path d="M300,448c-2.4,0-4-2-4-4s1.6-4,4-4l0,0c2.4,0,4,1.6,4,4S302,448,300,448z"/>
<path d="M276,396L276,396c-2.4,0-4-1.6-4-4s1.6-4,4-4c1.6,0,3.2,0.8,3.6,2.4c0.4,0.4,0.4,1.2,0.4,1.6C280,394,278.4,396,276,396z"/>
<path d="M444.4,304c-0.4,0-1.2,0-1.6-0.4c-1.6-0.8-2.4-2-2.4-3.6c0-2.4,1.6-4,4-4l0,0c1.6,0,3.2,0.8,3.6,2.4
	c0.8,1.6,0.4,3.2-0.8,4.4C446.4,303.6,445.2,304,444.4,304z"/>
<path d="M396,248L396,248c-2.4,0-4-1.6-4-4s1.6-4,4-4c1.6,0,3.2,0.8,3.6,2.4c0.4,0.4,0.4,1.2,0.4,1.6C400,246.4,398,248,396,248z"/>
<path d="M404.4,396.4c-2.4,0-4-1.6-4-4s1.6-4,4-4l0,0c2.4,0,4,1.6,4,4S406.4,396.4,404.4,396.4z"/>
<path d="M368,160.4c-2.4,0-4-1.6-4-4c0-1.6,0.8-2.8,2.4-3.6c0.4-0.4,1.2-0.4,1.6-0.4c2.4,0,4,1.6,4,4l0,0
	C372,158.4,370,160.4,368,160.4z"/>
<path d="M360.4,104.8C360,104.8,360,104.8,360.4,104.8c-2.4-0.4-4-2-4-4c0-2.4,1.6-4,4-4l0,0c2.4,0,4,1.6,4,4c0,1.2-0.4,2.4-1.2,2.8
	C362.4,104.4,361.2,104.8,360.4,104.8z"/>
<g>
</g>
<g>
</g>
<g>
</g>
<g>
</g>
<g>
</g>
<g>
</g>
<g>
</g>
<g>
</g>
<g>
</g>
<g>
</g>
<g>
</g>
<g>
</g>
<g>
</g>
<g>
</g>
<g>
</g>
</svg>
